<svg width="57" height="31" xmlns="http://www.w3.org/2000/svg">
    <path d="m37.983 25.606 1.838-10.307c.147 0 .288.003.428 0 .931-.022 1.868.014 2.791-.084.862-.093 1.526-.593 1.943-1.369.759-1.41-.013-2.796-1.611-2.854-1.113-.041-2.229-.004-3.343-.016-.24-.003-.278.134-.309.31-.39 2.252-.776 4.504-1.169 6.754-.662 3.79-1.329 7.578-1.994 11.366-.044.248-.091.495-.139.756H25.312c.088-.523.17-1.03.259-1.536.21-1.179.418-2.358.638-3.535.041-.224.114-.445.203-.654 2.956-6.93 5.916-13.857 8.874-20.784a.85.85 0 0 0 .09-.442c-.07.111-.144.219-.207.332-2.608 4.642-5.212 9.286-7.821 13.927-2.343 4.166-4.69 8.33-7.032 12.496-.1.179-.19.294-.432.293-4.434-.009-8.868-.006-13.301-.007-.072 0-.144-.007-.263-.013L0 .272h.444c3.67 0 7.854.004 11.524-.01 0 0-.009-.022.052.287.97 4.792 1.96 9.757 2.943 14.546l1.204 5.864c.024.116.055.232.085.357h.616c-.096-.536-.186-1.052-.28-1.566-.178-.961-.341-1.93-.504-2.893a.811.811 0 0 1 .065-.504C19.041 11.083 21.942 5.82 24.836.55c.115-.21.247-.283.484-.283C32.127.273 38.936.233 45.743.29c2.712.023 5.227.798 7.313 2.646 1.713 1.519 2.72 3.444 3.145 5.67 1.164 6.089-2.177 12.7-8.264 15.528-1.801.837-3.694 1.365-5.68 1.458-1.41.066-2.826.013-4.274.013Z" fill="#FFF" fill-rule="evenodd"/>
</svg>